<svg xmlns="http://www.w3.org/2000/svg" width="120" height="40" viewBox="0 0 120 40">
  <g fill="none" fillRule="evenodd">
    <path fill="#16A34A" d="M22.5,6 C26.0898509,6 29,8.91014913 29,12.5 C29,16.0898509 26.0898509,19 22.5,19 C18.9101491,19 16,16.0898509 16,12.5 C16,8.91014913 18.9101491,6 22.5,6 Z M22.5,9 C20.5670034,9 19,10.5670034 19,12.5 C19,14.4329966 20.5670034,16 22.5,16 C24.4329966,16 26,14.4329966 26,12.5 C26,10.5670034 24.4329966,9 22.5,9 Z"/>
    <path fill="#16A34A" d="M23.5,18 C27.0898509,18 30,20.9101491 30,24.5 C30,28.0898509 27.0898509,31 23.5,31 C19.9101491,31 17,28.0898509 17,24.5 C17,20.9101491 19.9101491,18 23.5,18 Z M23.5,21 C21.5670034,21 20,22.5670034 20,24.5 C20,26.4329966 21.5670034,28 23.5,28 C25.4329966,28 27,26.4329966 27,24.5 C27,22.5670034 25.4329966,21 23.5,21 Z"/>
    <path fill="#075985" d="M17,12 L17,28 L14,28 L14,12 L17,12 Z"/>
    <path fill="#075985" d="M12,20.5 C15.5898509,20.5 18.5,23.4101491 18.5,27 C18.5,30.5898509 15.5898509,33.5 12,33.5 C8.41014913,33.5 5.5,30.5898509 5.5,27 C5.5,23.4101491 8.41014913,20.5 12,20.5 Z M12,23.5 C10.0670034,23.5 8.5,25.0670034 8.5,27 C8.5,28.9329966 10.0670034,30.5 12,30.5 C13.9329966,30.5 15.5,28.9329966 15.5,27 C15.5,25.0670034 13.9329966,23.5 12,23.5 Z"/>
    <text fontFamily="Arial-BoldMT, Arial" fontSize="14" fontWeight="bold" fill="#16A34A">
      <tspan x="36" y="19">CLEAN</tspan>
    </text>
    <text fontFamily="Arial-BoldMT, Arial" fontSize="14" fontWeight="bold" fill="#075985">
      <tspan x="36" y="33">NINJA</tspan>
    </text>
  </g>
</svg>